<?xml version="1.0" encoding="UTF-8" standalone="no"?>
<!DOCTYPE svg PUBLIC "-//W3C//DTD SVG 1.1//EN" "http://www.w3.org/Graphics/SVG/1.1/DTD/svg11.dtd">
<svg width="100%" height="100%" viewBox="0 0 1209 230" version="1.1" xmlns="http://www.w3.org/2000/svg" xmlns:xlink="http://www.w3.org/1999/xlink" xml:space="preserve" xmlns:serif="http://www.serif.com/" style="fill-rule:evenodd;clip-rule:evenodd;stroke-linejoin:round;stroke-miterlimit:2;">
    <g transform="matrix(4.16667,0,0,4.16667,0,0)">
        <path d="M113.53,47.027L113.79,46.953L113.79,49.604C91.486,55.794 75.38,54.09 53.111,49.662C33.879,45.84 19.252,43.045 0,49.631L0,46.936C19.302,40.508 34.362,43.336 53.608,47.162C75.365,51.486 91.352,53.283 113.53,47.027Z" style="fill:rgb(80,133,196);fill-rule:nonzero;"/>
        <path d="M81.152,47.789L81.064,39.414C81.064,36.899 79.024,34.858 76.507,34.858C73.991,34.858 71.951,36.899 71.951,39.414L71.871,47.01C66.963,46.424 62.2,45.611 57.512,44.75C59.525,39.19 60.543,34.754 60.965,28.436L92.068,28.436C92.512,35.016 93.992,41.217 96.226,47.385C90.996,47.926 85.991,48.01 81.152,47.789Z" style="fill:rgb(233,28,41);fill-rule:nonzero;"/>
        <path d="M67.287,9.923L65.635,9.923L64.809,11.353L63.983,9.923L62.331,9.923L63.157,8.492L62.331,7.062L63.983,7.062L64.809,5.631L65.635,7.062L67.287,7.062L66.461,8.492L67.287,9.923Z" style="fill:rgb(233,28,41);fill-rule:nonzero;"/>
        <path d="M90.702,9.923L89.05,9.923L88.224,11.353L87.398,9.923L85.747,9.923L86.573,8.492L85.747,7.062L87.398,7.062L88.224,5.631L89.05,7.062L90.702,7.062L89.877,8.492L90.702,9.923Z" style="fill:rgb(233,28,41);fill-rule:nonzero;"/>
        <path d="M72.269,10.532L72.269,10.386C72.269,8.382 73.67,6.707 75.543,6.272L75.543,4.443L74.006,4.443L74.006,2.737L75.543,2.738L75.543,0.983L77.491,0.983L77.491,2.738L79.027,2.737L79.027,4.443L77.491,4.443L77.491,6.266C79.483,6.708 80.655,8.491 80.757,10.532L82.403,10.532L82.403,12.713L80.557,12.713L80.557,24.4L84.543,24.4L84.543,12.713L91.906,12.713L91.906,24.4L94.225,24.4L94.225,26.654L58.808,26.654L58.808,24.4L61.127,24.4L61.127,12.713L68.491,12.713L68.491,24.4L72.476,24.4L72.476,12.713L70.631,12.713L70.631,10.532L72.269,10.532Z" style="fill:rgb(233,28,41);fill-rule:nonzero;"/>
        <path d="M134.515,19.615L137.911,19.615L137.911,32.041L151.841,32.041L151.841,19.615L155.237,19.615L155.237,47.206L151.841,47.206L151.841,34.162L137.911,34.162L137.911,47.206L134.515,47.206L134.515,19.615Z" style="fill:white;fill-rule:nonzero;"/>
        <path d="M173.262,39.642L173.262,38.099L173.108,38.137C168.014,38.6 164.271,39.373 164.271,42.537C164.271,44.312 165.274,45.238 167.165,45.238C171.101,45.238 173.262,42.729 173.262,39.642ZM176.31,34.355L176.31,47.206L173.339,47.206L173.339,44.312C172.027,46.241 169.75,47.591 166.277,47.591C162.881,47.591 160.913,45.624 160.913,42.845C160.913,37.944 166.431,36.826 173.03,36.285L173.262,36.285L173.262,34.394C173.262,32.002 171.988,30.613 169.094,30.613C164.772,30.613 161.723,33.004 161.723,33.004L162.071,30.265C162.071,30.265 164.849,28.065 169.364,28.065C174.998,28.065 176.31,31.152 176.31,34.355Z" style="fill:white;fill-rule:nonzero;"/>
        <path d="M208.728,34.007L208.728,47.206L205.679,47.206L205.679,34.433C205.679,32.156 204.831,30.613 202.515,30.613C199.544,30.613 197.151,32.966 197.151,36.748L197.151,47.206L194.103,47.206L194.103,34.433C194.103,32.156 193.292,30.613 190.938,30.613C187.967,30.613 185.613,32.966 185.613,36.748L185.613,47.206L182.526,47.206L182.526,28.451L185.42,28.451L185.42,31.693C186.732,29.494 188.97,28.065 191.787,28.065C194.72,28.065 196.341,29.455 196.92,31.847C198.193,29.532 200.47,28.065 203.364,28.065C207.069,28.065 208.728,30.303 208.728,34.007Z" style="fill:white;fill-rule:nonzero;"/>
        <path d="M228.413,37.867C228.413,32.888 226.792,30.535 223.473,30.535C220.424,30.535 217.955,32.966 217.955,37.867C217.955,42.767 220.308,45.122 223.357,45.122C226.676,45.122 228.413,42.961 228.413,37.867ZM231.693,37.828C231.693,44.466 228.027,47.552 223.897,47.552C221.004,47.552 219.035,46.241 217.839,44.312L217.839,47.206L214.945,47.206L214.945,19.615L217.955,19.615L217.955,31.539C219.228,29.455 221.35,28.065 224.284,28.065C228.682,28.065 231.693,31.268 231.693,37.828Z" style="fill:white;fill-rule:nonzero;"/>
        <path d="M252.649,28.451L252.649,47.206L249.755,47.206L249.755,43.925C248.366,46.164 245.934,47.591 242.886,47.591C238.95,47.591 237.174,45.353 237.174,41.649L237.174,28.451L240.261,28.451L240.261,41.224C240.261,43.502 241.149,45.045 243.735,45.045C246.861,45.045 249.562,42.691 249.562,38.909L249.562,28.451L252.649,28.451Z" style="fill:white;fill-rule:nonzero;"/>
        <path d="M269.978,31.539C269.978,31.539 269.245,31.306 268.009,31.306C264.807,31.306 262.144,34.124 262.144,38.792L262.144,47.206L259.057,47.206L259.057,28.451L262.028,28.451L262.028,33.082C263.38,30.072 265.81,28.065 268.511,28.065C269.129,28.065 269.67,28.181 269.67,28.181L269.978,31.539Z" style="fill:white;fill-rule:nonzero;"/>
        <path d="M286.766,37.404C286.766,32.696 284.412,30.496 281.363,30.496C278.045,30.496 276.308,32.58 276.308,37.404C276.308,42.112 277.928,44.388 281.248,44.388C284.297,44.388 286.766,42.112 286.766,37.404ZM289.776,28.451L289.776,47.9C289.776,51.451 287.769,55 281.093,55C276.733,55 274.301,52.685 274.301,52.685L273.916,49.83C273.916,49.83 276.733,52.338 281.248,52.338C284.837,52.338 286.766,50.795 286.766,47.939L286.766,43.462C285.454,45.469 283.37,46.82 280.437,46.82C276.038,46.82 273.028,43.771 273.028,37.443C273.028,31.037 276.694,28.065 280.823,28.065C283.717,28.065 285.647,29.3 286.843,31.191L286.843,28.451L289.776,28.451Z" style="fill:white;fill-rule:nonzero;"/>
    </g>
</svg>
